<svg width="800" height="600" xmlns="http://www.w3.org/2000/svg" style="background-color: white; font-family: Arial, sans-serif;">
<text x="400" y="30" text-anchor="middle" font-size="20" font-weight="bold">Sine Wave</text>
<text x="410" y="590" text-anchor="middle" font-size="14">Time (s)</text>
<text x="20" y="300" text-anchor="middle" font-size="14" transform="rotate(-90, 20, 300)">Amplitude</text>
<line x1="70" y1="150" x2="750" y2="150" stroke="#e0e0e0" stroke-width="1" />
<line x1="206" y1="50" x2="206" y2="550" stroke="#e0e0e0" stroke-width="1" />
<line x1="70" y1="250" x2="750" y2="250" stroke="#e0e0e0" stroke-width="1" />
<line x1="342" y1="50" x2="342" y2="550" stroke="#e0e0e0" stroke-width="1" />
<line x1="70" y1="350" x2="750" y2="350" stroke="#e0e0e0" stroke-width="1" />
<line x1="478" y1="50" x2="478" y2="550" stroke="#e0e0e0" stroke-width="1" />
<line x1="70" y1="450" x2="750" y2="450" stroke="#e0e0e0" stroke-width="1" />
<line x1="614" y1="50" x2="614" y2="550" stroke="#e0e0e0" stroke-width="1" />
<rect x="70" y="50" width="680" height="500" fill="none" stroke="black" stroke-width="1" />
<polyline points="70,300.03499152237 76.868686868687,277.10658611371 83.737373737374,254.411921314 90.606060606061,232.18235489435 97.474747474747,210.64450324169 104.34343434343,190.01793114785 111.21212121212,170.51291348525 118.08080808081,152.32829158738 124.94949494949,135.649446187 131.81818181818,120.64640757672 138.68686868687,107.47212225755 145.55555555556,96.260893745938 152.42424242424,87.127013434276 159.29292929293,80.163595462344 166.16161616162,75.441627477479 173.0303030303,73.009246960356 179.89898989899,72.891250493778 186.76767676768,75.088840977183 193.63636363636,79.57961536384 200.50505050505,86.31779304576 207.37373737374,95.234682558076 214.24242424242,106.23938184513 221.11111111111,119.21970494951 227.9797979798,134.04332567701 234.84848484848,150.55912657861 241.71717171717,168.59873949736 248.58585858586,187.97826197542 255.45454545455,208.50013202346 262.32323232323,229.95514214026 269.19191919192,252.12457205112 276.06060606061,274.78241842282 282.92929292929,297.69769882487 289.79797979798,320.63680644947 296.66666666667,343.36589158535 303.53535353535,365.6532455678 310.40404040404,387.2716629022 317.27272727273,408.00075748048 324.14141414141,427.62920927828 331.0101010101,445.95691862905 337.87878787879,462.79704611386 344.74747474747,477.97791727111 351.61616161616,491.34477270933 358.48484848485,502.76134578136 365.35353535354,512.11125173672 372.22222222222,519.29917419067 379.09090909091,524.25183681449 385.9595959596,526.9187503414 392.82828282828,527.27272727273 399.69696969697,525.31015903726 406.56565656566,521.05105277837 413.43434343434,514.53882739385 420.30303030303,505.83987090762 427.17171717172,495.04286368581 434.0404040404,482.25787439644 440.90909090909,467.61523792884 447.77777777778,451.26422671187 454.64646464646,433.3715289757 461.51515151515,414.11954947072 468.38383838384,393.70454996622 475.25252525253,372.33464848573 482.12121212121,350.22769767518 488.9898989899,327.60906393282 495.85858585859,304.70932994116 502.72727272727,281.76194402215 509.59595959596,259.00084027908 516.46464646465,236.6580537861 523.33333333333,214.96135513726 530.20202020202,194.13192846919 537.07070707071,174.38211662854 543.93939393939,155.91325647079 550.80808080808,138.91362635823 557.67676767677,123.55652678094 564.54545454545,109.99851366784 571.41414141414,98.377802397824 578.28282828283,88.812858781333 585.15151515152,81.40119137623 592.0202020202,76.218357449658 598.88888888889,73.317192719433 605.75757575758,72.727272727273 612.62626262626,74.454611334838 619.49494949495,78.481599416207 626.36363636364,84.767184371794 633.23232323232,93.247288633667 640.10101010101,103.83546289587 646.9696969697,116.4237674105 653.83838383838,130.88387236524 660.70707070707,147.06836612471 667.57575757576,164.812257999 674.44444444444,183.93466021951 681.31313131313,204.24063197549 688.18181818182,225.52316671244 695.05050505051,247.5653024332 701.91919191919,270.1423334884 708.78787878788,293.02410130865 715.65656565657,315.97734072576 722.52525252525,338.76805796374 729.39393939394,361.16391605756 736.26262626263,382.93660338172 743.13131313131,403.86416114305 750,423.73324611041" fill="none" stroke="blue" stroke-width="2.000000" />
</svg>